<?xml version="1.0" standalone="no"?>
<!DOCTYPE svg PUBLIC "-//W3C//DTD SVG 20010904//EN"
 "http://www.w3.org/TR/2001/REC-SVG-20010904/DTD/svg10.dtd">
<svg version="1.0" xmlns="http://www.w3.org/2000/svg"
 width="1280.000000pt" height="889.000000pt" viewBox="0 0 1280.000000 889.000000"
 preserveAspectRatio="xMidYMid meet">
<metadata>
Created by potrace 1.15, written by Peter Selinger 2001-2017
</metadata>
<g transform="translate(0.000000,889.000000) scale(0.100000,-0.100000)"
fill="#000000" stroke="none">
<path d="M750 4720 l0 -4170 595 0 595 0 0 295 0 295 113 0 c222 0 3351 0
3760 0 l417 0 0 -295 0 -295 180 0 180 0 0 295 0 295 298 0 c289 0 3296 0
3760 0 l232 0 0 -295 0 -295 595 0 595 0 0 4170 0 4170 -5660 0 -5660 0 0
-4170z"/>
<path d="M3130 1025 c-30 -9 -74 -23 -97 -32 l-43 -16 0 -64 c0 -36 3 -63 8
-61 115 58 183 78 267 78 91 0 140 -26 173 -90 59 -117 13 -196 -287 -495
l-161 -160 0 -57 0 -58 300 0 300 0 0 55 0 55 -221 0 -221 0 174 181 c95 99
188 202 205 227 110 159 70 344 -93 421 -64 31 -220 39 -304 16z"/>
<path d="M3950 1024 c-91 -19 -88 -17 -92 -78 -1 -31 -2 -56 -2 -56 1 0 39 9
85 21 111 28 254 24 295 -7 48 -35 66 -67 66 -118 0 -103 -58 -145 -212 -153
l-100 -6 0 -48 0 -49 70 0 c113 0 169 -16 217 -64 87 -87 63 -220 -50 -278
-77 -39 -246 -33 -352 12 l-46 20 3 -63 3 -62 65 -19 c97 -28 285 -27 361 3
133 51 191 132 192 263 0 110 -45 183 -141 226 l-42 19 39 18 c46 20 96 69
110 108 6 16 11 54 11 86 0 106 -69 192 -182 226 -64 19 -210 18 -298 -1z"/>
<path d="M6949 1024 c-107 -37 -198 -138 -240 -266 -21 -63 -24 -92 -24 -218
0 -154 11 -219 51 -305 35 -74 78 -120 142 -152 49 -24 69 -28 142 -28 70 0
95 5 140 26 70 33 117 79 149 149 22 47 25 69 25 150 0 120 -24 180 -96 245
-63 57 -134 79 -227 73 -74 -6 -119 -25 -170 -72 l-34 -31 6 50 c15 127 67
220 146 262 58 30 162 31 253 3 34 -11 64 -20 66 -20 2 0 2 25 0 57 -3 56 -3
56 -43 71 -61 22 -230 26 -286 6z m130 -434 c132 -38 175 -267 72 -384 -43
-49 -154 -66 -218 -33 -87 45 -125 171 -88 293 30 103 128 155 234 124z"/>
<path d="M8538 1024 c-61 -22 -126 -77 -149 -128 -23 -50 -25 -140 -4 -189 19
-46 67 -93 110 -108 19 -7 35 -16 35 -19 0 -3 -16 -12 -36 -19 -19 -7 -51 -27
-71 -44 -53 -46 -73 -98 -73 -187 0 -167 93 -259 281 -276 149 -14 278 38 332
135 44 77 49 177 14 253 -27 60 -73 102 -134 123 l-36 13 44 19 c116 51 161
192 101 310 -25 47 -54 74 -112 104 -60 30 -230 38 -302 13z m232 -106 c108
-56 108 -216 0 -270 -43 -22 -150 -24 -188 -4 -54 28 -75 62 -80 125 -5 66 12
108 55 139 55 39 148 43 213 10z m10 -420 c109 -55 124 -228 26 -303 -96 -73
-260 -44 -311 56 -31 59 -14 181 31 221 61 54 175 66 254 26z"/>
<path d="M9367 1021 c-69 -28 -113 -65 -146 -123 -83 -144 -49 -358 69 -444
90 -66 216 -78 314 -30 30 15 65 39 76 53 11 14 22 24 24 22 2 -2 -3 -37 -10
-77 -30 -173 -117 -260 -259 -262 -44 0 -86 8 -180 35 -19 6 -20 3 -15 -52 l5
-57 45 -13 c73 -21 172 -27 231 -13 204 47 309 218 309 500 0 228 -68 386
-195 453 -58 30 -202 35 -268 8z m214 -104 c136 -72 134 -332 -3 -403 -40 -21
-128 -20 -173 2 -95 45 -131 216 -70 333 43 84 156 115 246 68z"/>
<path d="M10250 1031 c-134 -43 -208 -164 -231 -379 -26 -241 32 -462 143
-542 59 -43 138 -64 210 -56 76 8 117 26 171 75 84 78 127 217 127 418 0 249
-65 404 -195 468 -43 21 -180 31 -225 16z m170 -111 c88 -45 124 -170 117
-410 -3 -130 -8 -164 -26 -213 -31 -80 -70 -122 -126 -136 -80 -20 -147 11
-187 86 -82 153 -71 511 19 632 47 61 130 78 203 41z"/>
<path d="M2370 1014 c-36 -8 -89 -19 -117 -25 l-53 -10 0 -60 c0 -56 1 -59 23
-54 12 3 64 14 115 24 l92 18 0 -363 0 -364 -105 0 -105 0 0 -55 0 -55 275 0
275 0 0 55 0 55 -105 0 -105 0 0 425 0 425 -62 -1 c-35 -1 -92 -7 -128 -15z"/>
<path d="M4828 728 l-198 -301 0 -66 0 -66 212 0 213 0 3 -112 3 -113 64 0 65
0 0 116 0 116 65 -4 65 -3 0 53 0 52 -65 0 -65 0 -2 313 -3 312 -80 3 -80 2
-197 -302z m229 -325 c-2 -2 -76 -2 -164 -1 l-161 3 162 252 161 253 3 -252
c1 -138 1 -253 -1 -255z"/>
<path d="M5540 790 c0 -132 1 -240 3 -240 1 0 31 9 65 20 77 24 181 26 245 4
166 -56 181 -303 24 -386 -63 -34 -215 -31 -309 4 l-68 26 0 -64 0 -63 38 -10
c79 -22 190 -33 259 -27 204 17 316 131 316 321 0 187 -114 310 -302 322 -42
3 -93 1 -113 -5 l-38 -10 0 119 0 119 196 0 195 0 -3 53 -3 52 -252 3 -253 2
0 -240z"/>
<path d="M7530 975 l0 -55 229 -2 229 -3 -147 -380 c-81 -209 -154 -399 -164
-422 l-17 -43 69 0 69 0 50 133 c28 72 105 273 171 445 72 185 121 326 121
347 l0 35 -305 0 -305 0 0 -55z"/>
<path d="M123 609 c-84 -41 -118 -126 -118 -294 0 -169 34 -254 119 -295 114
-55 230 2 277 135 18 53 19 265 0 320 -44 132 -165 190 -278 134z m154 -72
c41 -37 58 -102 58 -222 -1 -120 -12 -168 -52 -215 -21 -26 -32 -30 -72 -30
-90 0 -124 68 -125 245 0 127 16 188 60 226 37 33 93 31 131 -4z"/>
<path d="M12430 469 l0 -151 23 7 c12 4 56 9 97 12 67 4 79 2 110 -19 90 -61
69 -204 -37 -239 -44 -14 -140 -7 -182 14 l-31 15 0 -43 0 -43 66 -12 c115
-22 226 1 277 58 46 51 60 158 28 227 -36 80 -111 120 -214 114 l-57 -4 0 72
0 72 121 3 122 3 2 33 3 32 -164 0 -164 0 0 -151z"/>
</g>
</svg>
